# xmcd
#
# Track frame offsets:
#        150
#        36976
#        68101
#        94805
#        119481
#        146892
#        181138
#        198988
#        219331
#        244096
#
# Disc length: 3693 seconds
#
# Revision: 1
# Processed by: cddbd v1.5.1PL2 Copyright (c) Steve Scherf et al.
# Submitted via: ExactAudioCopy v0.95a5
#
DISCID=940e6b0a
DTITLE=Various Artist - The Ballad on Jazz Piano Trio (Vol.1)
DYEAR=2005
DGENRE=Jazz
TTITLE0=Misty
TTITLE1=Summer Serenade
TTITLE2=Embraceablle You
TTITLE3=Time Remembered
TTITLE4=Arrivederci
TTITLE5=How Long Has This Been Going On?
TTITLE6=I'll Never Be The Same
TTITLE7=So In Love
TTITLE8=I Can't Get Started
TTITLE9=Love Is Stronger Than Us
EXTD=YEAR: 2005
EXTT0=
EXTT1=
EXTT2=
EXTT3=
EXTT4=
EXTT5=
EXTT6=
EXTT7=
EXTT8=
EXTT9=
PLAYORDER=
